# xmcd
#
# Track frame offsets:
#	150
#	22132
#	45659
#	53943
#	82274
#	94460
#	117603
#	135838
#	146119
#	161178
#	169904
#	187138
#	202964
#	214353
#	224162
#	241368
#	261611
#	275499
#	288498
#	298514
#	317701
#	327237
#	338991
#
# Disc length: 4767 seconds
#
# Revision: 1
# Processed by: cddbd v1.5.2PL0 Copyright (c) Steve Scherf et al.
# Submitted via: audiograbber 1.83.01
#
DISCID=8f129d17
DTITLE=Various Artist - Chris Barber Presents Lost and Found Vol.1
DYEAR=1958
DGENRE=Blues
TTITLE0=Every time I feel the spirit
TTITLE1=Feed me Jesus
TTITLE2=Didn't it rain
TTITLE3=This train
TTITLE4=Up above my head I hear music in the air
TTITLE5=Peace in the valley
TTITLE6=Down ba the riverside
TTITLE7=Old time religion
TTITLE8=When the Saints go marching in
TTITLE9=Old time religion (Reprise)
TTITLE10=Midnight special
TTITLE11=Climbin' on the top of the hill
TTITLE12=Hooray, hooray, this woman is killing me
TTITLE13=Fox chase
TTITLE14=How long, how long blues
TTITLE15=John Henry
TTITLE16=Cornbread, peas and black molasses
TTITLE17=Worried life blues
TTITLE18=Callin' mama blues
TTITLE19=Betty and Dupree
TTITLE20=When the Saints go marching in
TTITLE21=This little light of mine
TTITLE22=Glory - I'm going to walk and walk with Jesus
EXTD=
EXTT0=
EXTT1=
EXTT2=
EXTT3=
EXTT4=
EXTT5=
EXTT6=
EXTT7=
EXTT8=
EXTT9=
EXTT10=
EXTT11=
EXTT12=
EXTT13=
EXTT14=
EXTT15=
EXTT16=
EXTT17=
EXTT18=
EXTT19=
EXTT20=
EXTT21=
EXTT22=
PLAYORDER=
